<?xml version="1.0" encoding="UTF-8" standalone="no"?>
<!-- Created with Inkscape (http://www.inkscape.org/) -->

<svg
   width="280"
   height="165"
   viewBox="0 0 280.00002 165"
   version="1.1"
   id="svg5"
   xmlns="http://www.w3.org/2000/svg"
   xmlns:svg="http://www.w3.org/2000/svg">
  <defs
     id="defs2">
    <rect
       x="16.284386"
       y="53.082649"
       width="266.72565"
       height="146.07048"
       id="rect4059" />
  </defs>
  <g
     id="layer1">
    <g
       aria-label="Ewmh"
       transform="rotate(-9.3702544,-50.063717,188.44658)"
       id="text4057"
       style="font-size:128px;line-height:1.25;font-family:MonteCarlo;-inkscape-font-specification:MonteCarlo;white-space:pre;shape-inside:url(#rect4059)">
      <path
         d="m 43.037156,166.73097 q -8.576,-0.896 -14.08,-4.352 -5.376,-3.456 -7.936,-8.448 -2.56,-5.12 -2.56,-10.496 0,-0.768 0,-1.536 0.128,-0.768 0.256,-1.536 1.152,-8.32 6.4,-15.744 5.376,-7.424 14.208,-11.392 1.792,-0.768 3.584,-1.408 1.92,-0.768 2.688,-0.896 -2.304,-4.608 -2.304,-9.472 0,-4.095998 1.408,-8.063998 1.536,-3.968 3.968,-7.296 3.712,-4.864 9.088,-8.32 5.376,-3.456 11.52,-5.248 6.144,-1.92 12.16,-1.92 3.072,0 6.144,0.512 3.2,0.384 5.888,1.664 3.2,1.408 4.608,3.584 1.536,2.176 1.536,4.608 0,5.632 -6.144,9.728 -1.92,1.28 -5.248,2.176 -3.2,0.896 -6.4,0.896 -4.48,0 -7.04,-1.92 -0.512,-0.512 -0.512,-0.896 0,-0.384 0.384,-0.512 0.384,-0.256 0.512,-0.128 3.328,1.536 7.168,1.536 5.76,0 9.728,-2.688 4.992,-3.328 4.992,-7.808 0,-1.92 -1.152,-3.584 -1.024,-1.664 -3.584,-2.816 -2.048,-1.024 -4.736,-1.408 -2.56,-0.512 -4.992,-0.512 -6.272,0 -12.928,2.816 -6.528,2.688 -11.008,7.296 -3.2,3.456 -5.76,8.832 -2.56,5.376 -2.56,10.751998 0,3.072 1.152,6.016 3.584,-1.28 7.168,-1.792 3.712,-0.64 7.04,-0.64 8.96,0 8.96,4.608 0,2.688 -3.072,5.12 -3.072,2.304 -8.704,2.304 -0.768,0 -1.536,0 -0.768,-0.128 -1.536,-0.256 -5.12,-0.64 -8.064,-2.048 -2.944,-1.536 -5.248,-3.712 -1.536,0.768 -3.2,1.664 -1.664,0.768 -3.456,2.176 -6.656,5.632 -9.984,12.8 -3.328,7.168 -3.328,13.824 0,7.552 3.456,12.16 3.456,4.608 8.96,6.528 5.632,2.048 11.904,2.048 7.296,0 14.08,-2.176 7.936,-2.56 15.232,-7.936 7.296,-5.376 11.264,-13.952 1.408,-3.2 1.408,-5.76 0,-3.328 -2.176,-5.376 -2.176,-2.048 -6.016,-2.048 -0.512,0 -1.024,0 -0.384,0 -1.024,0.128 -5.248,0.768 -8.576,3.456 -3.2,2.688 -4.864,5.76 -1.664,3.072 -2.56,5.376 -0.384,0.768 -0.64,0.768 -0.512,0 -0.512,-1.28 0,-0.384 0,-0.768 0.128,-0.512 0.256,-1.024 0.512,-1.536 2.304,-4.48 1.792,-3.072 5.248,-5.888 3.456,-2.816 8.704,-3.84 1.792,-0.384 3.328,-0.384 5.12,0 8.32,2.944 3.2,2.816 3.2,7.296 0,2.56 -1.408,6.016 -2.816,6.4 -8.064,11.392 -5.12,4.992 -11.776,8.32 -6.528,3.456 -13.696,5.12 -7.168,1.792 -13.952,1.792 -1.28,0 -2.56,-0.128 -1.152,0 -2.304,-0.128 z m 21.632,-50.816 q 2.432,0 4.352,-0.768 3.328,-1.152 3.328,-3.584 0,-1.408 -1.664,-2.432 -1.664,-1.152 -5.12,-1.152 -3.84,0 -7.168,0.512 -3.328,0.512 -6.272,1.408 1.92,3.2 5.76,4.608 3.968,1.408 6.784,1.408 z"
         id="path40509" />
      <path
         d="m 131.35714,160.33097 q -3.584,0 -6.272,-2.688 -2.56,-2.688 -2.56,-7.808 0,-1.92 0.384,-3.968 -1.28,2.432 -3.456,5.248 -2.176,2.688 -4.352,4.864 -2.048,2.048 -4.864,3.328 -2.688,1.152 -5.376,0.896 -3.584,-0.384 -5.120001,-2.56 -1.408,-2.176 -1.408,-5.376 0,-4.224 1.664,-9.216 1.792001,-4.992 4.096001,-9.472 2.304,-4.608 3.712,-7.168 2.816,-4.736 5.632,-5.888 2.944,-1.152 7.168,-1.152 -1.28,0.384 -3.328,3.072 -2.048,2.56 -4.352,6.4 -2.176,3.84 -4.224,8.32 -1.92,4.352 -3.2,8.576 -1.152,4.096 -1.152,7.04 0,2.176 0.768,3.584 0.896,1.408 2.688,1.408 1.536,0 3.584,-1.152 2.048,-1.28 3.712,-3.072 5.632,-6.272 9.088,-13.696 3.584,-7.552 7.936,-14.976 2.816,-4.736 5.632,-5.888 2.944,-1.152 7.168,-1.152 -1.152,0.384 -3.328,3.072 -2.048,2.56 -4.48,6.528 -2.304,3.968 -4.48,8.448 -2.048,4.48 -3.456,8.576 -1.28,4.096 -1.28,6.912 0,3.84 2.048,5.12 2.048,1.152 3.712,1.152 3.328,0 6.272,-2.176 3.072,-2.176 5.504,-5.504 2.56,-3.328 4.352,-6.784 1.92,-3.584 2.944,-6.144 -0.512,-2.048 -0.512,-7.296 0,-3.2 0.384,-6.528 0.384,-3.328 1.28,-5.76 1.28,-3.2 3.968,-3.2 1.024,0 1.792,1.024 0.896,1.024 0.896,3.456 0,3.584 -1.152,7.424 -1.024,3.712 -1.664,5.12 -0.512,1.28 -1.28,3.2 -0.768,1.792 -1.792,3.968 -0.128,3.968 1.28,6.528 1.536,2.432 3.712,2.432 2.432,0 4.224,-1.408 1.92,-1.536 3.2,-3.584 1.408,-2.176 2.304,-3.968 0.384,-0.768 1.024,-0.768 0.512,0 0.512,0.64 0,0.384 -0.384,1.152 -1.536,3.456 -4.352,6.528 -2.816,3.072 -6.912,3.072 -2.048,0 -4.096,-1.664 -1.92,-1.664 -2.304,-5.248 -2.176,3.84 -5.248,8.064 -2.944,4.224 -6.912,7.168 -3.968,2.944 -9.344,2.944 z"
         id="path40511" />
      <path
         d="m 216.47699,160.20297 q -3.84,0 -5.888,-2.304 -2.048,-2.432 -2.048,-6.016 0,-3.968 2.048,-7.936 2.048,-4.096 4.608,-7.936 2.688,-3.84 4.736,-7.296 2.048,-3.456 2.048,-6.144 0,-1.024 -0.512,-1.792 -0.512,-0.896 -1.92,-0.896 -4.096,0 -8.576,3.84 -4.352,3.712 -8.448,9.6 -4.096,5.888 -7.424,12.288 -3.2,6.4 -4.992,11.776 -2.048,-0.512 -2.816,-1.536 -0.64,-1.152 -0.64,-2.432 0,-2.048 0.512,-3.968 0.64,-1.92 1.92,-4.736 1.28,-2.816 3.328,-7.168 2.048,-4.48 4.864,-11.52 0.384,-1.024 0.512,-1.792 0.128,-0.768 0.128,-1.408 0,-2.944 -2.432,-2.944 -3.072,0 -6.272,2.56 -3.2,2.432 -6.272,6.528 -2.944,4.096 -5.632,8.832 -2.688,4.736 -4.864,9.344 -2.176,4.48 -3.584,7.808 -1.28,2.944 -3.072,3.84 -1.792,0.768 -3.456,0.768 -0.512,0 -1.28,-0.128 -0.64,0 -1.28,0 2.56,-5.12 5.376,-11.136 2.944,-6.144 5.376,-12.288 2.432,-6.144 3.968,-11.776 1.536,-5.632 1.536,-9.728 0,-0.512 -0.128,-0.768 0,-0.256 0,-0.512 0,-0.384 0.256,-0.384 1.28,0 2.048,1.664 0.768,1.536 1.024,3.584 0.384,1.92 0.384,3.072 0,3.2 -0.768,6.656 -0.768,3.328 -1.792,5.632 4.864,-6.528 9.984,-11.136 5.248,-4.608 10.368,-4.608 3.456,0 4.992,1.408 1.536,1.408 1.536,3.968 0,1.792 -0.64,3.584 -0.512,1.792 -1.792,4.864 4.864,-6.656 9.472,-10.24 4.736,-3.584 9.344,-3.584 3.712,0 5.504,1.664 1.92,1.664 1.92,4.48 0,3.072 -2.048,7.296 -1.92,4.096 -4.48,8.576 -2.56,4.352 -4.608,8.32 -1.92,3.84 -1.92,6.4 0,1.408 0.64,2.56 0.64,1.152 2.304,1.152 2.176,0 4.096,-1.408 2.048,-1.536 3.456,-3.2 2.944,-3.2 5.376,-7.04 2.56,-3.968 4.992,-8.32 0.384,-0.512 0.512,-0.512 0.512,0 0.512,1.152 0,0.768 -0.256,1.152 -2.304,4.224 -4.864,8.32 -2.56,3.968 -6.272,7.68 -1.664,1.664 -3.84,2.944 -2.176,1.28 -4.864,1.28 z"
         id="path40513" />
      <path
         d="m 258.84491,160.33097 q -4.352,0 -6.144,-2.56 -1.664,-2.56 -1.664,-5.504 0,-1.28 0.256,-2.432 0.256,-1.28 0.64,-2.432 2.176,-5.632 6.016,-10.752 3.84,-5.12 6.4,-10.624 0.896,-1.664 0.896,-3.072 0,-1.536 -0.896,-2.304 -0.896,-0.768 -1.92,-0.768 -2.432,0 -5.376,2.176 -2.816,2.048 -5.504,5.248 -2.432,2.816 -4.992,6.528 -2.56,3.584 -4.864,7.68 -2.176,3.712 -4.48,7.808 -2.304,3.968 -3.712,6.784 -1.024,2.176 -2.176,2.816 -1.152,0.64 -2.176,0.64 -0.512,0 -1.024,-0.128 -0.512,0 -0.896,0 1.152,-4.352 4.224,-11.904 3.2,-7.68 7.552,-18.176 2.432,-5.632 5.76,-12.928 3.328,-7.424 7.552,-15.104 4.224,-7.807998 9.344,-14.719998 5.12,-7.04 11.008,-12.288 6.016,-5.248 12.672,-7.296 0.768,-0.128 1.536,-0.256 0.768,-0.128 1.536,-0.128 1.92,0 3.328,0.896 1.792,1.152 1.792,4.096 0,2.048 -1.152,4.992 -2.048,5.12 -6.784,11.008 -4.608,5.888 -10.88,12.032 -7.808,7.551998 -14.976,13.311998 -7.168,5.76 -11.52,9.088 -2.56,5.504 -4.224,9.6 -1.664,3.968 -2.176,5.76 2.048,-3.072 4.608,-6.656 2.688,-3.712 4.736,-5.76 2.944,-2.944 5.888,-4.992 2.944,-2.048 5.76,-2.304 4.352,-0.384 6.272,1.152 1.92,1.408 1.92,4.224 0,2.816 -1.536,6.272 -1.664,3.968 -3.968,7.936 -2.304,3.968 -4.224,7.68 -0.512,1.024 -1.92,3.968 -1.28,2.816 -1.664,5.376 0,0.128 -0.128,0.384 0,0.256 0,0.512 0,1.408 0.768,2.176 0.768,0.64 1.792,0.64 2.176,0 4.096,-1.408 1.92,-1.408 3.328,-3.072 2.944,-3.2 5.376,-7.04 2.432,-3.84 4.864,-8.192 0.384,-0.512 0.768,-0.512 0.512,0 0.512,0.768 0,0.64 -0.256,1.024 -2.304,4.224 -4.992,8.448 -2.56,4.224 -6.272,7.936 -1.664,1.664 -3.84,3.072 -2.176,1.28 -4.864,1.28 z m -9.472,-40.832 q 7.68,-5.632 13.824,-11.392 6.144,-5.76 12.416,-12.415998 1.792,-1.92 4.608,-5.12 2.944,-3.2 5.76,-6.912 2.816,-3.712 4.224,-7.168 1.28,-2.944 1.28,-4.992 0,-3.456 -3.2,-3.456 -1.664,0 -3.712,1.024 -2.048,1.024 -3.84,2.816 -6.144,5.76 -12.032,14.08 -5.76,8.192 -10.752,17.023998 -4.864,8.832 -8.576,16.512 z"
         id="path40515" />
    </g>
  </g>
</svg>
